<svg id="Layer_1" data-name="Layer 1" xmlns="http://www.w3.org/2000/svg" viewBox="0 0 92.345 32.01"><path d="M.2,4.873l5.82-3.64L7.8.113c.27-.18.41-.17.4.21s0,1,0,1.51.17.61.64.61h21c.44,0,.54.06.3.49q-4.639,8.25-9.34,16.54c-.1.19-.18.37-.46.37H14.83L22.4,7.053c-.18-.16-.34-.1-.5-.1H9.01c-.49,0-.66.12-.63.62v2.27Z" style="fill:#faba38"/><path d="M22.4,19.533l8.1,4.56L22.41,28.8l-.19-2.33H0c.87-1.54,1.69-3,2.51-4.41l3.51-6.15c.82-1.45,1.63-2.92,2.45-4.37.46-.82.92-1.63,1.4-2.43a.45.45,0,0,1,.33-.2h5.3L8.05,21.743H21.48c.48,0,.73-.07.71-.64" style="fill:#008d36"/><path d="M35.154,11.9a5.767,5.767,0,0,1,.54-.27,4.069,4.069,0,0,0,.5-.257h4.789a5.825,5.825,0,0,0,.663.245,5.289,5.289,0,0,1,.7.27,4.506,4.506,0,0,1,.651.393,2.717,2.717,0,0,0,.258.2c.138.1.229.159.27.184a2.032,2.032,0,0,1,.208.159,1.983,1.983,0,0,1,.222.209c.049.058.11.127.184.209a2.413,2.413,0,0,1,.209.27,2.917,2.917,0,0,1,.306.59q.111.294.222.675a6.219,6.219,0,0,0,.209.626v6.189a4.536,4.536,0,0,0-.2.54,6.137,6.137,0,0,1-.208.578,2.848,2.848,0,0,1-.284.5,9.69,9.69,0,0,1-1.768,1.99,2.786,2.786,0,0,1-.454.331,5.423,5.423,0,0,1-.54.27,3.989,3.989,0,0,0-.5.258H36.345a5.825,5.825,0,0,0-.663-.245,5.285,5.285,0,0,1-.7-.271,4.36,4.36,0,0,1-.65-.393,5.488,5.488,0,0,1-1.352-1.326,2.943,2.943,0,0,1-.307-.589c-.073-.2-.147-.422-.22-.676s-.144-.462-.209-.626V15.748a5.011,5.011,0,0,0,.2-.54,5.614,5.614,0,0,1,.209-.578,2.841,2.841,0,0,1,.283-.5A9.928,9.928,0,0,1,34.7,12.236,2.81,2.81,0,0,1,35.154,11.9Zm.061,4.065a1.807,1.807,0,0,0-.159.294q-.061.148-.123.345c-.041.131-.078.237-.11.319V20.66c.032.1.069.221.11.368a3.918,3.918,0,0,0,.135.405,1.7,1.7,0,0,0,.2.357,2.861,2.861,0,0,0,.81.786,2.221,2.221,0,0,0,.381.233,3.289,3.289,0,0,0,.417.159c.156.05.291.1.405.148h2.874c.082-.032.184-.077.307-.135a2.788,2.788,0,0,0,.319-.172,1.506,1.506,0,0,0,.258-.209,6.185,6.185,0,0,0,1.081-1.179,1.57,1.57,0,0,0,.159-.307c.041-.106.082-.221.123-.344l.111-.331V16.73c-.033-.1-.07-.225-.111-.38a2.9,2.9,0,0,0-.135-.405,1.89,1.89,0,0,0-.2-.345,3.422,3.422,0,0,0-.811-.736,2.192,2.192,0,0,0-.381-.234,3.448,3.448,0,0,0-.417-.159,4.02,4.02,0,0,1-.405-.148H37.18c-.082.034-.184.078-.307.136a2.794,2.794,0,0,0-.319.171,1.555,1.555,0,0,0-.258.209A5.842,5.842,0,0,0,35.215,15.969Z" style="stroke:#000;stroke-miterlimit:10;stroke-width:0.5px"/><path d="M59.874,14.79v1.424H57.147v-.491a4.067,4.067,0,0,0-.491-.614q-.246-.245-.392-.368c-.1-.082-.287-.221-.566-.418a.886.886,0,0,0-.319-.172c-.114-.032-.241-.065-.38-.1s-.258-.065-.356-.1H50.3V26.039H47.521V11.45H55.6c.211.016.5.045.859.086s.6.07.712.086a4.485,4.485,0,0,1,.491.11,2.088,2.088,0,0,1,.541.222c.147.09.318.208.516.356a3.077,3.077,0,0,1,.908,1.019A3.427,3.427,0,0,1,59.874,14.79Z" style="stroke:#000;stroke-miterlimit:10;stroke-width:0.5px"/><path d="M62.575,6.514h2.578V11.7h5.969a5.894,5.894,0,0,0,.553.209q.332.111.589.222a2.125,2.125,0,0,1,.478.282,8.193,8.193,0,0,1,1.843,1.719,1.982,1.982,0,0,1,.294.491q.1.246.2.577a4.609,4.609,0,0,0,.2.553v6.189c-.065.164-.134.372-.209.626s-.147.48-.22.676a2.949,2.949,0,0,1-.308.589,2.407,2.407,0,0,1-.208.27c-.074.082-.136.152-.184.209a1.872,1.872,0,0,1-.221.209,1.972,1.972,0,0,1-.209.159c-.041.025-.132.086-.271.185a2.671,2.671,0,0,0-.257.2,4.47,4.47,0,0,1-.651.393,5.289,5.289,0,0,1-.7.27,6.023,6.023,0,0,0-.663.245H66.382a4.212,4.212,0,0,0-.5-.257,5.421,5.421,0,0,1-.54-.27,2.7,2.7,0,0,1-.454-.332,8.2,8.2,0,0,1-1.6-1.793,4.423,4.423,0,0,1-.3-.54,5.773,5.773,0,0,1-.233-.614c-.073-.229-.144-.426-.208-.589Zm2.738,14.637.111.356a1.6,1.6,0,0,0,.147.331,4.057,4.057,0,0,0,.688.934,1.555,1.555,0,0,0,.258.209c.089.058.188.119.3.184s.2.123.282.171h3.512a1.233,1.233,0,0,1,.258-.085,1.512,1.512,0,0,0,.27-.086,1.07,1.07,0,0,0,.233-.147,4.142,4.142,0,0,0,.835-.909c.05-.082.094-.159.136-.233a1.653,1.653,0,0,0,.11-.258,1.826,1.826,0,0,1,.1-.245V16.436c-.049-.1-.1-.213-.148-.345s-.1-.249-.146-.355a1.43,1.43,0,0,0-.2-.308,3.612,3.612,0,0,0-.933-.859,1.288,1.288,0,0,0-.3-.147c-.1-.033-.209-.065-.332-.1a2.684,2.684,0,0,1-.307-.1H65.2v6.582C65.235,20.906,65.272,21.02,65.313,21.151Z" style="stroke:#000;stroke-miterlimit:10;stroke-width:0.5px"/><path d="M78.563,10.787V8.012h2.7v2.775Zm0,15.276q.025-6.606.025-14.245h2.678V26.063Z" style="stroke:#000;stroke-miterlimit:10;stroke-width:0.5px"/><path d="M87.122,25.867c-.172-.066-.323-.131-.454-.2a2.452,2.452,0,0,1-.394-.246,4,4,0,0,1-1.1-1.031,3.6,3.6,0,0,1-.381-.848q-.184-.552-.209-.626V8.871h2.7v2.947h3.144v2.53H87.257v8.179c.05.065.106.142.172.232s.127.169.184.234.118.132.185.2l.613.417h2.014v2.456H87.552A3.077,3.077,0,0,0,87.122,25.867Z" style="stroke:#000;stroke-miterlimit:10;stroke-width:0.5px"/></svg>